# Blender 3.3.1
# www.blender.org
mtllib asteroidLD.mtl
o rock.003
v 0.406046 -0.286417 0.677860
v 0.892507 -0.517206 0.258762
v -0.961591 -0.822307 -0.303185
v -0.701655 1.272628 0.097394
v -0.543172 -0.898826 0.850254
v -0.945354 1.012953 -0.567475
v -1.032500 0.518420 -0.537006
v -0.460759 0.583387 -0.760253
v -0.130435 0.675337 -1.295223
v 1.337141 0.566448 -0.196878
v 0.708249 0.004155 0.261089
v 0.992649 0.628353 0.661772
v -0.280418 0.183011 1.095315
v 1.105914 -0.127993 -0.192807
v -1.164372 0.523932 0.806428
v -0.775007 0.948901 0.349166
v -0.813223 -0.122286 1.110959
v -0.394649 -1.258222 -0.206495
v -0.030121 -1.052095 0.224676
v -0.432130 1.295524 0.444376
v 0.603795 1.564011 -0.567142
v -0.032702 1.636431 -0.880275
v 0.328872 1.392802 0.408112
v -0.833179 0.085136 -0.254710
v -0.910442 0.060162 -0.805906
v -0.990029 -0.380559 0.230568
v -1.088705 0.019458 0.140858
v -0.534131 -0.034664 -1.172428
v -0.630713 -0.385188 -0.664192
v 0.057849 -0.101677 -1.431043
v 0.767476 0.185564 -0.693990
v 0.667296 -0.149125 -1.080789
v 0.590189 0.873679 -1.034231
v 0.777908 -0.413173 -0.671440
v 0.584052 0.046589 0.638908
v 0.348595 0.827494 1.268595
v -0.621288 0.943989 1.219231
v 1.249344 1.034450 -0.288718
v 0.145807 -0.808451 1.123221
v -1.249236 0.694425 0.007135
v 0.021472 -0.261409 1.290367
v -0.864595 -0.498362 0.893252
v -0.380503 -0.765622 -0.995876
v -0.535254 -0.857647 0.393326
v 0.114527 -0.966856 -0.226319
v 0.477921 -1.110175 0.375718
v 0.664258 -0.736977 -0.464302
v -0.043947 -0.864154 -1.103543
v -0.067641 1.376089 0.047182
v -0.411323 1.510656 -0.241530
v 0.544857 1.284376 0.120349
vn -0.9500 -0.3043 -0.0705
vn -0.9894 -0.0897 -0.1141
vn -0.9862 -0.1653 0.0075
vn -0.9975 0.0187 -0.0686
vn -0.9314 -0.3336 0.1457
vn -0.3763 0.2113 -0.9021
vn -0.3728 0.3937 -0.8402
vn -0.3761 0.2034 -0.9040
vn -0.5444 -0.5449 -0.6377
vn -0.7734 -0.4435 -0.4529
vn -0.6729 -0.3141 -0.6697
vn -0.8560 -0.1258 -0.5015
vn -0.7423 -0.6264 0.2381
vn -0.6691 -0.6405 0.3770
vn -0.5353 -0.8238 0.1865
vn -0.9032 -0.1503 -0.4021
vn -0.6164 -0.6089 -0.4993
vn -0.9048 0.1346 -0.4039
vn -0.9663 -0.1668 -0.1960
vn -0.6755 -0.5337 -0.5088
vn -0.7672 0.0528 -0.6393
vn 0.5468 0.2444 -0.8008
vn 0.8592 -0.0556 -0.5087
vn 0.9586 0.0390 -0.2820
vn 0.5532 -0.3013 -0.7767
vn 0.7081 -0.5444 -0.4496
vn 0.5338 -0.5057 -0.6778
vn 0.7338 -0.1222 -0.6682
vn 0.9035 -0.0004 -0.4287
vn -0.4036 -0.1368 -0.9047
vn -0.3729 -0.3237 -0.8696
vn -0.3880 -0.3122 -0.8672
vn -0.5256 0.0281 -0.8502
vn 0.2559 0.2855 -0.9236
vn 0.4378 -0.1062 -0.8928
vn 0.7751 -0.1460 -0.6148
vn 0.8660 0.3043 0.3969
vn 0.8240 0.2891 0.4873
vn 0.7621 0.2667 0.5900
vn 0.7208 -0.3746 0.5833
vn 0.7529 -0.2118 0.6231
vn 0.5688 -0.2332 0.7887
vn 0.8240 -0.1329 0.5508
vn 0.6887 -0.3178 0.6517
vn -0.0114 -0.1657 0.9861
vn -0.1396 0.0528 0.9888
vn -0.1923 -0.0753 0.9784
vn 0.8311 -0.5346 -0.1528
vn 0.8170 -0.5705 -0.0845
vn 0.7633 -0.5643 -0.3144
vn 0.8805 -0.2910 0.3742
vn 0.6546 0.6788 0.3327
vn 0.6084 0.6696 0.4260
vn 0.5901 0.6953 0.4103
vn 0.8756 -0.0250 0.4824
vn -0.0149 0.0772 0.9969
vn -0.2828 0.2179 0.9341
vn -0.6759 0.6655 0.3167
vn -0.6204 0.7110 0.3312
vn -0.6322 0.7570 0.1652
vn -0.9511 -0.1918 0.2421
vn -0.9676 -0.0641 0.2441
vn -0.9339 -0.3280 0.1425
vn -0.7504 -0.6607 -0.0196
vn -0.7816 -0.6199 -0.0694
vn -0.2856 -0.3954 0.8730
vn -0.3071 -0.3418 0.8882
vn -0.3070 -0.3414 0.8884
vn -0.4304 -0.7940 0.4294
vn 0.3953 -0.9013 -0.1769
vn 0.3274 -0.9245 -0.1953
vn 0.4907 -0.8648 -0.1064
vn -0.0519 -0.9781 -0.2015
vn 0.0902 -0.9552 -0.2819
vn 0.2798 -0.9271 -0.2493
vn -0.1528 -0.9823 0.1086
vn -0.1329 -0.9598 0.2472
vn -0.0227 -0.9305 0.3655
vn 0.1711 0.9575 -0.2323
vn -0.0151 0.9782 0.2071
vn 0.0106 0.9877 0.1560
vn 0.5074 0.7574 0.4110
vn 0.1948 0.9197 0.3408
vn 0.4622 0.8059 0.3700
vn 0.0276 0.9621 0.2711
vn 0.0356 0.9214 0.3870
vn -0.6284 0.7654 -0.1392
vn -0.6780 0.7316 -0.0711
vn -0.6917 0.7216 -0.0283
vn 0.0093 0.8733 0.4871
vn -0.0798 0.9587 0.2729
vn 0.0862 0.8992 0.4290
vn -0.5988 0.7750 -0.2023
vn -0.6738 0.5427 0.5015
vn -0.3644 0.0068 -0.9312
vn -0.3060 -0.4578 -0.8347
vn -0.2596 0.9657 -0.0074
vn -0.7029 0.6325 -0.3253
vn -0.6452 0.2415 -0.7249
vn -0.4941 0.1323 -0.8593
vn 0.7222 0.1597 -0.6730
vn 0.4935 -0.6178 0.6122
vn 0.5997 -0.5017 0.6235
vn 0.6081 -0.6061 0.5127
vn 0.9100 0.3204 0.2631
vn 0.9072 0.2382 0.3468
vn -0.2959 -0.3697 0.8808
vn -0.2591 -0.4571 0.8508
vn -0.6205 0.0321 0.7836
vn -0.6870 0.7157 0.1254
vn -0.7259 0.6878 -0.0026
vn -0.4868 -0.7371 -0.4687
vn -0.4192 -0.7668 -0.4861
vn -0.4632 -0.7481 -0.4751
vn -0.3860 -0.7795 -0.4933
vn -0.1930 -0.8792 0.4356
vn 0.4965 -0.8680 -0.0048
vn 0.8096 -0.5816 -0.0788
vn 0.7585 -0.1650 0.6304
vn -0.1342 0.9535 0.2698
vn 0.5272 0.4691 -0.7086
vn 0.3401 0.4449 -0.8285
vn -0.5224 0.3822 -0.7623
vn -0.7193 0.6330 0.2862
vt 0.220813 0.675508
vt 0.334147 0.994189
vt 0.146010 0.338791
vt 0.663736 0.998347
vt 0.484375 1.000000
vt 0.036483 0.422904
vt 0.495576 0.023869
vt 0.994180 0.891107
vt 0.135582 0.604766
vt 0.014518 0.564460
vt 0.021732 0.461964
vt 0.950463 0.218049
vt 0.935470 0.993571
vt 0.219258 0.976937
vt 0.652853 1.000000
vt 0.706670 0.231731
vt 0.747459 0.476213
vt 0.693144 0.015041
vt 0.733583 0.814835
vt 0.667386 0.995322
vt 0.619839 0.001055
vt 0.666551 0.849305
vt 0.703125 0.000000
vt 0.370818 0.291741
vt 0.695367 0.274697
vt 0.724338 0.004987
vt 0.547162 0.983225
vt 0.533791 0.103446
vt 0.284922 0.995172
vt 0.302061 0.028270
vt 0.700428 0.505970
vt 0.972148 0.484578
vt 0.012478 0.528122
vt 0.386233 0.432580
vt 0.555496 0.291647
vt 0.420554 0.540185
vt 0.229774 0.292493
vt 0.833539 0.588745
vt 0.645165 0.838493
vt 0.994263 0.369634
vt 0.589396 0.200437
vt 0.469563 0.218244
vt 0.408607 0.523420
vt 0.191819 0.062929
vt 0.226251 0.974227
vt 0.422092 0.026433
vt 0.429258 0.935646
vt 0.269199 0.002588
vt 0.393815 0.772216
vt 0.177492 0.654738
vt 0.476617 0.989570
vt 0.370839 0.110384
vt 0.488174 0.602121
vt 0.329861 0.449201
vt 0.801172 0.199590
vt 0.926662 0.860802
vt 0.154576 0.743625
vt 0.391518 0.550989
vt 0.786239 0.666957
vt 0.402285 0.011460
vt 0.857430 0.879636
vt 0.897069 0.111519
vt 0.061605 0.112998
vt 0.875362 0.733533
vt 0.810695 0.001244
vt 0.962100 0.524580
vt 0.108458 0.978799
vt 0.040604 0.144524
vt 0.048818 0.865546
vt 0.767165 0.006794
vt 0.008908 0.703898
vt 0.821898 0.842057
vt 0.375269 0.913944
vt 0.294896 0.073919
vt 0.207333 0.620732
vt 0.112517 0.890998
vt 0.002056 0.618437
vt 0.016388 0.133427
vt 0.906768 0.063373
vt 0.020942 0.058554
vt 0.090260 0.922078
vt 0.205776 0.287988
vt 0.655896 0.584505
vt 0.430088 0.813032
vt 0.020183 0.211805
vt 0.035235 0.857881
vt 0.007428 0.474369
vt 0.912754 0.852101
vt 0.045575 0.261985
vt 0.962927 0.245140
vt 0.480143 0.426670
vt 0.360292 0.687460
vt 0.991943 0.158210
vt 0.765700 0.249011
s 1
usemtl Material.001
f 27/46/1 25/43/2 26/44/3
f 26/44/3 25/43/2 3/6/4
f 7/16/5 25/43/5 24/42/5
f 8/17/6 25/43/7 7/16/8
f 25/43/9 28/49/10 29/50/11
f 28/49/10 43/76/12 29/50/11
f 26/44/13 3/6/14 44/80/15
f 7/16/16 24/42/17 27/46/1
f 6/12/18 7/16/16 40/70/19
f 6/12/20 9/19/20 8/17/20
f 29/50/11 43/77/12 3/6/21
f 33/55/22 31/53/23 32/54/24
f 32/54/25 34/57/26 48/89/27
f 33/55/22 10/22/28 31/53/23
f 32/54/24 31/53/23 34/57/29
f 30/52/30 48/89/31 43/78/32
f 28/48/33 30/52/30 43/78/32
f 9/18/34 33/55/22 30/52/35
f 10/22/28 14/29/36 31/53/23
f 31/53/23 14/29/36 34/57/29
f 11/24/37 2/3/38 14/30/39
f 35/58/40 1/1/41 2/3/42
f 35/58/40 41/73/43 1/1/41
f 36/59/44 41/73/43 35/58/40
f 37/61/45 13/27/46 36/59/47
f 14/30/48 2/3/49 47/85/50
f 12/25/51 14/30/51 10/21/51
f 23/40/52 36/59/53 12/25/54
f 1/1/41 41/73/43 39/67/55
f 13/28/46 17/34/56 41/74/57
f 16/32/58 40/72/59 15/31/60
f 17/34/61 27/47/1 42/75/62
f 40/72/19 27/47/1 15/31/63
f 27/47/1 26/45/3 42/75/62
f 40/72/19 7/15/16 27/47/1
f 42/75/64 44/81/15 5/10/65
f 42/75/66 5/10/67 39/68/68
f 3/7/14 18/35/69 44/82/15
f 48/90/70 45/83/71 18/35/72
f 19/36/73 45/83/71 46/84/74
f 45/83/71 47/88/75 46/84/74
f 48/90/70 47/88/75 45/83/71
f 5/11/76 46/84/77 39/69/78
f 51/94/79 49/91/80 23/41/81
f 38/66/82 21/38/83 51/94/84
f 21/38/83 22/39/85 49/91/80
f 49/91/80 22/39/85 50/92/86
f 50/92/87 6/14/88 4/9/89
f 36/60/90 20/37/91 37/63/92
f 50/92/87 22/39/93 6/14/88
f 4/9/94 40/71/59 16/33/58
f 7/16/8 6/12/95 8/17/6
f 3/6/96 25/43/9 29/50/11
f 27/46/97 24/42/97 25/43/97
f 8/17/98 9/19/98 25/43/98
f 25/43/99 9/19/100 28/49/33
f 9/19/100 30/51/30 28/49/33
f 30/52/35 33/55/22 32/54/25
f 30/52/35 32/54/25 48/89/27
f 38/64/101 10/22/28 33/55/22
f 34/57/26 14/29/48 47/86/50
f 48/89/27 34/57/26 47/87/50
f 14/30/102 12/25/103 11/24/104
f 11/24/104 12/25/103 35/58/40
f 2/3/38 11/24/37 35/58/105
f 12/25/103 36/59/44 35/58/40
f 36/59/47 13/27/46 41/73/57
f 10/23/106 38/65/106 12/25/106
f 38/65/82 51/93/84 12/25/54
f 41/74/107 42/75/66 39/68/68
f 41/74/107 17/34/108 42/75/66
f 13/28/46 37/62/45 17/34/56
f 37/62/109 15/31/109 17/34/109
f 37/62/110 16/32/58 15/31/60
f 17/34/61 15/31/63 27/47/1
f 42/75/64 26/45/13 44/81/15
f 4/8/89 6/13/88 40/72/111
f 3/7/112 43/79/113 18/35/114
f 43/79/113 48/90/115 18/35/114
f 19/36/116 44/82/15 18/35/69
f 18/35/72 45/83/71 19/36/117
f 5/11/76 44/82/15 46/84/77
f 44/82/15 19/36/116 46/84/77
f 46/84/118 47/88/50 2/4/49
f 1/2/41 46/84/119 2/5/42
f 39/69/55 46/84/119 1/2/41
f 20/37/91 23/41/81 49/91/80
f 20/37/91 49/91/80 4/9/120
f 51/94/84 21/38/83 49/91/80
f 49/91/80 50/92/86 4/9/120
f 21/38/121 33/56/22 22/39/122
f 36/60/90 23/41/81 20/37/91
f 12/26/54 51/94/84 23/41/52
f 38/66/101 33/56/22 21/38/121
f 22/39/122 33/56/22 9/20/34
f 6/14/123 22/39/123 9/20/123
f 20/37/124 4/9/94 16/33/58
f 37/63/110 20/37/124 16/33/58
